# xmcd
#
# Track frame offsets:
#	182
#	10815
#	23615
#	37325
#	50830
#	70877
#	102307
#	128022
#	141887
#	159985
#	175215
#	210617
#	237957
#
# Disc length: 3377 seconds
#
# Revision: 1
# Processed by: cddbd v1.4PL0 Copyright (c) Steve Scherf et al.
# Submitted via: audiograbber 1.80
#
DISCID=b20d2f0d
DTITLE=Miles Davis - Blue Haze
DYEAR=1900
DGENRE=
TTITLE0=Morpheus
TTITLE1=Dwon
TTITLE2=Whispering
TTITLE3=Blue Room
TTITLE4=Miles Ahead
TTITLE5=The Serpents Tooth
TTITLE6=Compulsion
TTITLE7=Smooch
TTITLE8=Four
TTITLE9=That old Devil Moon
TTITLE10=I'll remember April
TTITLE11=Blue Haze
TTITLE12=When lights are low
EXTD=
EXTT0=
EXTT1=
EXTT2=
EXTT3=
EXTT4=
EXTT5=
EXTT6=
EXTT7=
EXTT8=
EXTT9=
EXTT10=
EXTT11=
EXTT12=
PLAYORDER=
